<mxfile host="65bd71144e">
    <diagram id="i56BZ5JQD51k05bis6Mc" name="TopDownFixed">
        <mxGraphModel dx="1401" dy="580" grid="1" gridSize="10" guides="1" tooltips="1" connect="1" arrows="1" fold="1" page="1" pageScale="1" pageWidth="827" pageHeight="1169" math="0" shadow="0">
            <root>
                <mxCell id="0"/>
                <mxCell id="1" parent="0"/>
                <mxCell id="9" style="edgeStyle=none;html=1;entryX=0.5;entryY=0;entryDx=0;entryDy=0;jumpStyle=line;" parent="1" target="4" edge="1">
                    <mxGeometry relative="1" as="geometry">
                        <mxPoint x="330" y="90" as="sourcePoint"/>
                    </mxGeometry>
                </mxCell>
                <mxCell id="16" style="edgeStyle=orthogonalEdgeStyle;rounded=0;jumpStyle=line;html=1;entryX=0.5;entryY=0;entryDx=0;entryDy=0;" parent="1" source="2" target="3" edge="1">
                    <mxGeometry relative="1" as="geometry">
                        <Array as="points">
                            <mxPoint x="330" y="120"/>
                            <mxPoint x="10" y="120"/>
                        </Array>
                    </mxGeometry>
                </mxCell>
                <mxCell id="17" style="edgeStyle=orthogonalEdgeStyle;shape=connector;rounded=0;jumpStyle=line;html=1;labelBackgroundColor=default;fontFamily=Helvetica;fontSize=11;fontColor=default;endArrow=classic;strokeColor=default;" parent="1" source="2" target="5" edge="1">
                    <mxGeometry relative="1" as="geometry">
                        <Array as="points">
                            <mxPoint x="330" y="120"/>
                            <mxPoint x="600" y="120"/>
                        </Array>
                    </mxGeometry>
                </mxCell>
                <mxCell id="2" value="Circumference Program" style="rounded=0;whiteSpace=wrap;html=1;" parent="1" vertex="1">
                    <mxGeometry x="270" y="30" width="120" height="60" as="geometry"/>
                </mxCell>
                <mxCell id="13" style="edgeStyle=none;html=1;exitX=0.5;exitY=1;exitDx=0;exitDy=0;entryX=0.5;entryY=0;entryDx=0;entryDy=0;" parent="1" source="3" target="6" edge="1">
                    <mxGeometry relative="1" as="geometry">
                        <Array as="points">
                            <mxPoint x="-70" y="230"/>
                        </Array>
                    </mxGeometry>
                </mxCell>
                <mxCell id="19" style="edgeStyle=none;html=1;exitX=1;exitY=1;exitDx=0;exitDy=0;entryX=0.5;entryY=0;entryDx=0;entryDy=0;" edge="1" parent="1" source="3" target="18">
                    <mxGeometry relative="1" as="geometry">
                        <Array as="points">
                            <mxPoint x="100" y="230"/>
                        </Array>
                    </mxGeometry>
                </mxCell>
                <mxCell id="3" value="Input" style="rounded=0;whiteSpace=wrap;html=1;" parent="1" vertex="1">
                    <mxGeometry x="-50" y="170" width="120" height="60" as="geometry"/>
                </mxCell>
                <mxCell id="12" style="edgeStyle=none;html=1;exitX=0.5;exitY=1;exitDx=0;exitDy=0;entryX=0.5;entryY=0;entryDx=0;entryDy=0;" parent="1" source="4" target="8" edge="1">
                    <mxGeometry relative="1" as="geometry">
                        <Array as="points">
                            <mxPoint x="230" y="230"/>
                        </Array>
                    </mxGeometry>
                </mxCell>
                <mxCell id="21" style="edgeStyle=none;html=1;exitX=1;exitY=1;exitDx=0;exitDy=0;entryX=0.5;entryY=0;entryDx=0;entryDy=0;" edge="1" parent="1" source="4" target="20">
                    <mxGeometry relative="1" as="geometry">
                        <Array as="points">
                            <mxPoint x="420" y="230"/>
                        </Array>
                    </mxGeometry>
                </mxCell>
                <mxCell id="4" value="Process" style="rounded=0;whiteSpace=wrap;html=1;" parent="1" vertex="1">
                    <mxGeometry x="270" y="170" width="120" height="60" as="geometry"/>
                </mxCell>
                <mxCell id="14" style="edgeStyle=none;html=1;exitX=0.5;exitY=1;exitDx=0;exitDy=0;entryX=0.5;entryY=0;entryDx=0;entryDy=0;rounded=0;" parent="1" source="5" target="7" edge="1">
                    <mxGeometry relative="1" as="geometry">
                        <Array as="points">
                            <mxPoint x="510" y="230"/>
                        </Array>
                    </mxGeometry>
                </mxCell>
                <mxCell id="23" style="edgeStyle=none;html=1;exitX=1;exitY=1;exitDx=0;exitDy=0;entryX=0.5;entryY=0;entryDx=0;entryDy=0;" edge="1" parent="1" source="5" target="22">
                    <mxGeometry relative="1" as="geometry">
                        <Array as="points">
                            <mxPoint x="690" y="230"/>
                        </Array>
                    </mxGeometry>
                </mxCell>
                <mxCell id="5" value="Output" style="rounded=0;whiteSpace=wrap;html=1;" parent="1" vertex="1">
                    <mxGeometry x="540" y="170" width="120" height="60" as="geometry"/>
                </mxCell>
                <mxCell id="6" value="Get Length" style="rounded=0;whiteSpace=wrap;html=1;" parent="1" vertex="1">
                    <mxGeometry x="-130" y="310" width="120" height="60" as="geometry"/>
                </mxCell>
                <mxCell id="7" value="Show Area" style="rounded=0;whiteSpace=wrap;html=1;" parent="1" vertex="1">
                    <mxGeometry x="450" y="320" width="120" height="60" as="geometry"/>
                </mxCell>
                <mxCell id="8" value="Area = Length * Width" style="rounded=0;whiteSpace=wrap;html=1;" parent="1" vertex="1">
                    <mxGeometry x="170" y="430" width="120" height="60" as="geometry"/>
                </mxCell>
                <mxCell id="18" value="Get Width" style="rounded=0;whiteSpace=wrap;html=1;" vertex="1" parent="1">
                    <mxGeometry x="40" y="310" width="120" height="60" as="geometry"/>
                </mxCell>
                <mxCell id="20" value="Perimeter = 2( Length * Width)" style="rounded=0;whiteSpace=wrap;html=1;" vertex="1" parent="1">
                    <mxGeometry x="360" y="430" width="120" height="60" as="geometry"/>
                </mxCell>
                <mxCell id="22" value="Show Perimeter" style="rounded=0;whiteSpace=wrap;html=1;" vertex="1" parent="1">
                    <mxGeometry x="630" y="320" width="120" height="60" as="geometry"/>
                </mxCell>
            </root>
        </mxGraphModel>
    </diagram>
</mxfile>